ffmpeg version 4.4.2-0ubuntu0.22.04.1 Copyright (c) 2000-2021 the FFmpeg developers
  built with gcc 11 (Ubuntu 11.2.0-19ubuntu1)
  configuration: --prefix=/usr --extra-version=0ubuntu0.22.04.1 --toolchain=hardened --libdir=/usr/lib/x86_64-linux-gnu --incdir=/usr/include/x86_64-linux-gnu --arch=amd64 --enable-gpl --disable-stripping --enable-gnutls --enable-ladspa --enable-libaom --enable-libass --enable-libbluray --enable-libbs2b --enable-libcaca --enable-libcdio --enable-libcodec2 --enable-libdav1d --enable-libflite --enable-libfontconfig --enable-libfreetype --enable-libfribidi --enable-libgme --enable-libgsm --enable-libjack --enable-libmp3lame --enable-libmysofa --enable-libopenjpeg --enable-libopenmpt --enable-libopus --enable-libpulse --enable-librabbitmq --enable-librubberband --enable-libshine --enable-libsnappy --enable-libsoxr --enable-libspeex --enable-libsrt --enable-libssh --enable-libtheora --enable-libtwolame --enable-libvidstab --enable-libvorbis --enable-libvpx --enable-libwebp --enable-libx265 --enable-libxml2 --enable-libxvid --enable-libzimg --enable-libzmq --enable-libzvbi --enable-lv2 --enable-omx --enable-openal --enable-opencl --enable-opengl --enable-sdl2 --enable-pocketsphinx --enable-librsvg --enable-libmfx --enable-libdc1394 --enable-libdrm --enable-libiec61883 --enable-chromaprint --enable-frei0r --enable-libx264 --enable-shared
  libavutil      56. 70.100 / 56. 70.100
  libavcodec     58.134.100 / 58.134.100
  libavformat    58. 76.100 / 58. 76.100
  libavdevice    58. 13.100 / 58. 13.100
  libavfilter     7.110.100 /  7.110.100
  libswscale      5.  9.100 /  5.  9.100
  libswresample   3.  9.100 /  3.  9.100
  libpostproc    55.  9.100 / 55.  9.100
Input #0, image2, from 'slides/01_monolith.png':
  Duration: 00:00:00.04, start: 0.000000, bitrate: N/A
  Stream #0:0: Video: png, rgba(pc), 1488x831 [SAR 4724:4724 DAR 496:277], 25 fps, 25 tbr, 25 tbn, 25 tbc
Stream mapping:
  Stream #0:0 -> #0:0 (png (native) -> h264 (libx264))
[libx264 @ 0x55ee0982ee80] using SAR=830/831
[libx264 @ 0x55ee0982ee80] using cpu capabilities: MMX2 SSE2Fast SSSE3 SSE4.2 AVX FMA3 BMI2 AVX2
[libx264 @ 0x55ee0982ee80] profile High, level 3.2, 4:2:0, 8-bit
[libx264 @ 0x55ee0982ee80] 264 - core 163 r3060 5db6aa6 - H.264/MPEG-4 AVC codec - Copyleft 2003-2021 - http://www.videolan.org/x264.html - options: cabac=1 ref=3 deblock=1:0:0 analyse=0x3:0x113 me=hex subme=7 psy=1 psy_rd=1.00:0.00 mixed_ref=1 me_range=16 chroma_me=1 trellis=1 8x8dct=1 cqm=0 deadzone=21,11 fast_pskip=1 chroma_qp_offset=-2 threads=3 lookahead_threads=1 sliced_threads=0 nr=0 decimate=1 interlaced=0 bluray_compat=0 constrained_intra=0 bframes=3 b_pyramid=2 b_adapt=1 b_bias=0 direct=1 weightb=1 open_gop=0 weightp=2 keyint=250 keyint_min=25 scenecut=40 intra_refresh=0 rc_lookahead=40 rc=crf mbtree=1 crf=23.0 qcomp=0.60 qpmin=0 qpmax=69 qpstep=4 ip_ratio=1.40 aq=1:1.00
Output #0, mp4, to 'vid_01.mp4':
  Metadata:
    encoder         : Lavf58.76.100
  Stream #0:0: Video: h264 (avc1 / 0x31637661), yuv420p(tv, progressive), 1488x830 [SAR 830:831 DAR 496:277], q=2-31, 30 fps, 15360 tbn
    Metadata:
      encoder         : Lavc58.134.100 libx264
    Side data:
      cpb: bitrate max/min/avg: 0/0/0 buffer size: 0 vbv_delay: N/A
frame=    1 fps=0.0 q=0.0 size=       0kB time=00:00:00.00 bitrate=N/A speed=   0x    frame=   38 fps=0.0 q=0.0 size=       0kB time=00:00:00.00 bitrate=N/A dup=6 drop=0 speed=   0x    frame=   67 fps= 65 q=29.0 size=       0kB time=00:00:00.56 bitrate=   0.7kbits/s dup=11 drop=0 speed=0.553x    frame=  102 fps= 67 q=29.0 size=       0kB time=00:00:01.73 bitrate=   0.2kbits/s dup=17 drop=0 speed=1.14x    frame=  131 fps= 61 q=-1.0 Lsize=      25kB time=00:00:04.26 bitrate=  47.2kbits/s dup=22 drop=0 speed=1.97x    
video:22kB audio:0kB subtitle:0kB other streams:0kB global headers:0kB muxing overhead: 10.808548%
[libx264 @ 0x55ee0982ee80] frame I:1     Avg QP:19.59  size: 13608
[libx264 @ 0x55ee0982ee80] frame P:33    Avg QP:10.82  size:    67
[libx264 @ 0x55ee0982ee80] frame B:97    Avg QP:13.67  size:    64
[libx264 @ 0x55ee0982ee80] consecutive B-frames:  0.8%  1.5%  0.0% 97.7%
[libx264 @ 0x55ee0982ee80] mb I  I16..4: 23.3% 69.0%  7.7%
[libx264 @ 0x55ee0982ee80] mb P  I16..4:  0.0%  0.0%  0.0%  P16..4:  0.0%  0.0%  0.0%  0.0%  0.0%    skip:100.0%
[libx264 @ 0x55ee0982ee80] mb B  I16..4:  0.0%  0.0%  0.0%  B16..8:  0.3%  0.0%  0.0%  direct: 0.0%  skip:99.7%  L0:70.9% L1:29.1% BI: 0.0%
[libx264 @ 0x55ee0982ee80] 8x8 transform intra:68.8% inter:11.5%
[libx264 @ 0x55ee0982ee80] coded y,uvDC,uvAC intra: 4.8% 0.8% 0.7% inter: 0.0% 0.0% 0.0%
[libx264 @ 0x55ee0982ee80] i16 v,h,dc,p: 76% 16%  8%  0%
[libx264 @ 0x55ee0982ee80] i8 v,h,dc,ddl,ddr,vr,hd,vl,hu: 63% 17% 20%  0%  0%  0%  0%  0%  0%
[libx264 @ 0x55ee0982ee80] i4 v,h,dc,ddl,ddr,vr,hd,vl,hu: 44% 21% 15%  3%  4%  4%  3%  3%  3%
[libx264 @ 0x55ee0982ee80] i8c dc,h,v,p: 98%  1%  0%  0%
[libx264 @ 0x55ee0982ee80] Weighted P-Frames: Y:0.0% UV:0.0%
[libx264 @ 0x55ee0982ee80] ref P L0: 84.4%  0.0% 15.6%
[libx264 @ 0x55ee0982ee80] ref B L0: 33.9% 66.1%
[libx264 @ 0x55ee0982ee80] kb/s:40.32
